<?xml version="1.0" encoding="UTF-8"?>
<svg width="700pt" height="700pt" version="1.1" viewBox="0 0 700 700" xmlns="http://www.w3.org/2000/svg">
 <g>
  <path d="m212.89 180.84h277.32v13.125h-277.32z"/>
  <path d="m180.22 148.17c10.832 0 20.641 4.3906 27.738 11.492 7.0977 7.0977 11.492 16.906 11.492 27.738 0 10.832-4.3906 20.641-11.492 27.742-7.0977 7.0977-16.906 11.492-27.738 11.492-10.832 0-20.641-4.3906-27.738-11.492-7.0977-7.0977-11.492-16.906-11.492-27.742 0-10.832 4.3906-20.641 11.492-27.738 7.0977-7.0977 16.906-11.492 27.738-11.492zm18.461 20.77c-4.7227-4.7227-11.25-7.6445-18.461-7.6445-7.2109 0-13.738 2.9219-18.461 7.6445-4.7227 4.7227-7.6445 11.25-7.6445 18.461 0 7.2109 2.9219 13.738 7.6445 18.461 4.7227 4.7227 11.25 7.6445 18.461 7.6445 7.2109 0 13.738-2.9219 18.461-7.6445 4.7227-4.7227 7.6445-11.25 7.6445-18.461 0-7.2109-2.9219-13.738-7.6445-18.461z"/>
  <path d="m520.77 148.17c10.832 0 20.641 4.3906 27.738 11.492 7.0977 7.0977 11.492 16.906 11.492 27.738 0 10.832-4.3906 20.641-11.492 27.742-7.0977 7.0977-16.906 11.492-27.738 11.492s-20.641-4.3906-27.738-11.492c-7.0977-7.0977-11.492-16.906-11.492-27.742 0-10.832 4.3906-20.641 11.492-27.738 7.0977-7.0977 16.906-11.492 27.738-11.492zm18.461 20.77c-4.7227-4.7227-11.25-7.6445-18.461-7.6445-7.2109 0-13.738 2.9219-18.461 7.6445s-7.6445 11.25-7.6445 18.461c0 7.2109 2.9219 13.738 7.6445 18.461 4.7227 4.7227 11.25 7.6445 18.461 7.6445 7.2109 0 13.738-2.9219 18.461-7.6445 4.7227-4.7227 7.6445-11.25 7.6445-18.461 0-7.2109-2.9219-13.738-7.6445-18.461z"/>
  <path d="m174.83 341.44c-0.80859 3.5234 1.3984 7.0391 4.9219 7.8438 3.5234 0.80859 7.0391-1.3984 7.8438-4.9219 0.089844-0.39844 30.57-138.55 162.9-144.46 132.24 5.9062 160.48 143.96 160.57 144.36 0.75 3.5391 4.2266 5.8008 7.7656 5.0508s5.8008-4.2266 5.0508-7.7656c-0.089844-0.42578-30.352-148.41-172.87-154.72-0.074219-0.003906-0.15234-0.011718-0.22656-0.011718 0.078125 0.003906 0.15234 0.011718 0.22656 0.011718 3.25 0.25391 5.875 2.9023 6.0195 6.2422 0.15625 3.6094-2.6445 6.6641-6.2539 6.8203l-0.28125-6.5352 0.28125-6.5352h-0.007813l-0.13281-0.003906h-0.28125l-0.13281 0.003906h-0.007812l0.28125 6.5352-0.28125 6.5352c-3.6094-0.15625-6.4102-3.207-6.2539-6.8203 0.14453-3.3398 2.7695-5.9883 6.0195-6.2422 0.078125-0.003906 0.14844-0.011718 0.22656-0.011718-0.074219 0.003906-0.15234 0.007812-0.22656 0.011718-142.44 6.3125-175.05 154.19-175.15 154.62zm175.38-154.63h0.007813zm0.57812 0h-0.007812z"/>
  <path d="m152.9 336.34h56.629c3.5547 0 6.7812 1.4492 9.1133 3.7852v0.027344c2.3359 2.3359 3.7852 5.5508 3.7852 9.0898v49.695c0 3.5352-1.4492 6.7539-3.7852 9.0898v0.027343c-2.3359 2.3359-5.5625 3.7852-9.1133 3.7852h-56.629c-3.5547 0-6.7812-1.4492-9.1133-3.7852-2.3359-2.3359-3.7852-5.5625-3.7852-9.1133v-49.695c0-3.5234 1.4492-6.7422 3.7852-9.0898l0.023438-0.023438c2.3477-2.3359 5.5625-3.7852 9.0898-3.7852zm56.398 13.125h-56.172v49.242h56.172z"/>
  <path d="m489.16 336.34h56.629c3.5352 0 6.7539 1.4492 9.0898 3.7852l0.027344 0.027344c2.3359 2.3359 3.7852 5.5508 3.7852 9.0898v49.695c0 3.5547-1.4492 6.7812-3.7852 9.1133h-0.027344c-2.3359 2.3359-5.5508 3.7852-9.0898 3.7852h-56.629c-3.5547 0-6.7812-1.4492-9.1133-3.7852-2.3359-2.3359-3.7852-5.5625-3.7852-9.1133v-49.695c0-3.5547 1.4492-6.7812 3.7852-9.1133 2.3359-2.3359 5.5625-3.7852 9.1133-3.7852zm56.402 13.125h-56.172v49.242h56.172z"/>
  <path d="m327.93 162.55h45.121c2.7773 0 5.0469 2.2734 5.0469 5.0469v39.598c0 2.7773-2.2734 5.0469-5.0469 5.0469h-45.121c-2.7773 0-5.0469-2.2734-5.0469-5.0469v-39.598c0-2.7773 2.2734-5.0469 5.0469-5.0469z" fill-rule="evenodd"/>
 </g>
</svg>
